<?xml version="1.0" encoding="UTF-8" standalone="no"?>
<svg
   xmlns:osb="http://www.openswatchbook.org/uri/2009/osb"
   xmlns:dc="http://purl.org/dc/elements/1.1/"
   xmlns:cc="http://creativecommons.org/ns#"
   xmlns:rdf="http://www.w3.org/1999/02/22-rdf-syntax-ns#"
   xmlns:svg="http://www.w3.org/2000/svg"
   xmlns="http://www.w3.org/2000/svg"
   id="svg30"
   version="1.1"
   viewBox="0 0 113.77083 113.77084"
   height="430"
   width="430">
  <defs
     id="defs24">
    <linearGradient
       osb:paint="solid"
       id="linearGradient2324">
      <stop
         id="stop2322"
         offset="0"
         style="stop-color:#220c2b;stop-opacity:1;" />
    </linearGradient>
    <linearGradient
       osb:paint="solid"
       id="linearGradient870">
      <stop
         id="stop868"
         offset="0"
         style="stop-color:#220c2b;stop-opacity:1;" />
    </linearGradient>
    <clipPath
       id="clipPath40"
       clipPathUnits="userSpaceOnUse">
      <g
         transform="translate(16.516736,3.3040583e-6)"
         id="g48">
        <path
           style="opacity:1;fill:#442356;fill-opacity:1;stroke:#220c2b;stroke-width:0;stroke-linecap:butt;stroke-linejoin:miter;stroke-miterlimit:4;stroke-dasharray:none;stroke-opacity:0.5"
           d="m 83.666055,183.60324 v 4.8e-4 c -0.431337,0.057 -14.395909,11.77409 -35.087466,12.49163 2.467751,61.35447 9.581671,63.80813 35.097535,83.72708 1.594742,-1.24493 3.117417,-2.42182 4.571752,-3.54896 21.815034,-16.90697 28.212274,-22.65831 30.525784,-80.17812 -17.07874,-0.59226 -29.574501,-8.67844 -33.659967,-11.51608 -0.942799,-0.65482 -1.437569,-1.0302 -1.437569,-0.96947 0,-0.006 -0.0032,-0.008 -0.01007,-0.007 z m -17.887908,31.56435 h 1.887466 v 6.39038 l 5.563084,-3.44119 0.960209,1.67842 -5.943413,3.28843 5.943413,3.3053 -0.960209,1.66109 -5.563084,-3.44072 v 6.39037 h -1.887466 v -6.39037 l -5.563081,3.44072 -0.960212,-1.66109 5.943873,-3.3053 -5.943873,-3.28843 0.960212,-1.67842 5.563081,3.44119 z m 16.954245,0 h 1.887463 v 6.39038 l 5.563085,-3.44119 0.960209,1.67842 -5.943871,3.28843 5.943871,3.3053 -0.960209,1.66109 -5.563085,-3.44072 v 6.39037 h -1.887463 v -6.39037 l -5.563084,3.44072 -0.960208,-1.66109 5.943869,-3.3053 -5.94387,-3.28843 0.960209,-1.67842 5.563083,3.44119 z m 16.954243,0 h 1.887465 v 6.39038 l 5.56308,-3.44119 0.96021,1.67842 -5.94387,3.28843 5.94387,3.3053 -0.96021,1.66109 -5.56308,-3.44072 v 6.39037 h -1.887465 v -6.39037 l -5.563084,3.44072 -0.960665,-1.66109 5.94387,-3.3053 -5.94387,-3.28843 0.960665,-1.67842 5.563084,3.44119 z"
           id="path42" />
        <path
           id="path44"
           d="m 83.664928,179.42652 c 0,0 -16.020935,12.79855 -39.048161,13.57852 2.746313,66.69293 10.663254,69.36009 39.059363,91.0122 1.774758,-1.35326 3.469306,-2.63256 5.087815,-3.85775 24.277525,-18.37806 31.396855,-24.62982 33.971535,-87.15445 -19.0066,-0.64378 -32.91287,-9.43357 -37.459506,-12.51809 -1.049227,-0.69888 -0.630911,-0.57724 -1.599844,-1.05382 -0.258382,-0.26338 -0.43884,0.77415 0,0 z"
           style="opacity:1;fill:none;fill-opacity:1;stroke:#442356;stroke-width:2.31933761;stroke-linecap:butt;stroke-linejoin:miter;stroke-miterlimit:3.5999999;stroke-dasharray:none;stroke-opacity:1" />
        <path
           style="fill:none;stroke:#442356;stroke-width:2.29578948;stroke-linecap:butt;stroke-linejoin:miter;stroke-miterlimit:4;stroke-dasharray:none;stroke-opacity:1"
           d="m 83.67613,179.43313 c 0.112692,0.84965 7.058233,-6.37535 -0.01078,-6.37535 m 0.06273,6.37535 c -0.112692,0.84965 -7.058233,-6.37535 0.01078,-6.37535"
           id="path46" />
      </g>
    </clipPath>
  </defs>
  <metadata
     id="metadata27">
    <rdf:RDF>
      <cc:Work
         rdf:about="">
        <dc:format>image/svg+xml</dc:format>
        <dc:type
           rdf:resource="http://purl.org/dc/dcmitype/StillImage" />
        <dc:title></dc:title>
      </cc:Work>
    </rdf:RDF>
  </metadata>
  <g
     transform="translate(-15.133234,2.8856898)"
     id="layer2">
    <g
       transform="translate(-112.11277,-16.951876)"
       style="fill:#ffffff;fill-opacity:1"
       id="g4676">
      <path
         transform="translate(83.93856,-157.58591)"
         style="fill:#ffffff;fill-opacity:1;stroke-width:0.79374999;stroke-miterlimit:4;stroke-dasharray:none"
         clip-path="url(#clipPath40)"
         d="M 43.410019,171.9099 H 156.9757 V 285.47558 H 43.410019 Z"
         id="rect36" />
      <ellipse
         style="fill:#fffff8;fill-opacity:1;stroke-width:0.63719785;stroke-miterlimit:4;stroke-dasharray:none"
         id="path922"
         cx="183.90936"
         cy="18.487986"
         rx="2.1030607"
         ry="2.7237887" />
    </g>
    <g
       transform="translate(-28.174209,-174.53779)"
       id="layer1-2">
      <flowRoot
         xml:space="preserve"
         id="flowRoot133-8"
         style="font-style:normal;font-variant:normal;font-weight:bold;font-stretch:normal;font-size:40px;line-height:1.25;font-family:sans-serif;-inkscape-font-specification:'sans-serif Bold';letter-spacing:0px;word-spacing:0px;fill:#000000;fill-opacity:1;stroke:none"
         transform="scale(0.26458333)"><flowRegion
           id="flowRegion135-3"
           style="font-style:normal;font-variant:normal;font-weight:bold;font-stretch:normal;font-family:sans-serif;-inkscape-font-specification:'sans-serif Bold'"><rect
             id="rect137-2"
             width="188.57143"
             height="108.57143"
             x="-737.14288"
             y="433.94824"
             style="font-style:normal;font-variant:normal;font-weight:bold;font-stretch:normal;font-family:sans-serif;-inkscape-font-specification:'sans-serif Bold'" /></flowRegion><flowPara
           id="flowPara139-1" /></flowRoot>      <text
         xml:space="preserve"
         style="font-style:normal;font-variant:normal;font-weight:bold;font-stretch:normal;font-size:10.58333302px;line-height:1.25;font-family:sans-serif;-inkscape-font-specification:'sans-serif Bold';letter-spacing:0px;word-spacing:0px;fill:#000000;fill-opacity:1;stroke:none;stroke-width:0.26458332"
         x="-167.82143"
         y="123.8869"
         id="text143-1"><tspan
           id="tspan141-1"
           x="-167.82143"
           y="133.5424"
           style="font-style:normal;font-variant:normal;font-weight:bold;font-stretch:normal;font-family:sans-serif;-inkscape-font-specification:'sans-serif Bold';stroke-width:0.26458332" /></text>
      <flowRoot
         xml:space="preserve"
         id="flowRoot145-0"
         style="font-style:normal;font-weight:normal;font-size:40px;line-height:1.25;font-family:sans-serif;letter-spacing:0px;word-spacing:0px;fill:#000000;fill-opacity:1;stroke:none"
         transform="scale(0.26458333)"><flowRegion
           id="flowRegion147-9"><rect
             id="rect149-2"
             width="505.71429"
             height="417.14285"
             x="-888.57141"
             y="319.66254" /></flowRegion><flowPara
           id="flowPara151-8" /></flowRoot>      <flowRoot
         xml:space="preserve"
         id="flowRoot153-6"
         style="font-style:normal;font-weight:normal;font-size:40px;line-height:1.25;font-family:sans-serif;letter-spacing:0px;word-spacing:0px;fill:#000000;fill-opacity:1;stroke:none"
         transform="scale(0.26458333)"><flowRegion
           id="flowRegion155-4"><rect
             id="rect157-1"
             width="614.28571"
             height="462.85715"
             x="-848.57141"
             y="336.80539" /></flowRegion><flowPara
           id="flowPara159-9" /></flowRoot>      <g
         id="g882"
         transform="translate(16.516737,3.8266998e-6)">
        <path
           id="path119"
           d="m 83.666055,183.60324 v 4.8e-4 c -0.431337,0.057 -14.395909,11.77409 -35.087466,12.49163 2.467751,61.35447 9.581671,63.80813 35.097535,83.72708 1.594742,-1.24493 3.117417,-2.42182 4.571752,-3.54896 21.815034,-16.90697 28.212274,-22.65831 30.525784,-80.17812 -17.07874,-0.59226 -29.574501,-8.67844 -33.659967,-11.51608 -0.942799,-0.65482 -1.437569,-1.0302 -1.437569,-0.96947 0,-0.006 -0.0032,-0.008 -0.01007,-0.007 z m -17.887908,31.56435 h 1.887466 v 6.39038 l 5.563084,-3.44119 0.960209,1.67842 -5.943413,3.28843 5.943413,3.3053 -0.960209,1.66109 -5.563084,-3.44072 v 6.39037 h -1.887466 v -6.39037 l -5.563081,3.44072 -0.960212,-1.66109 5.943873,-3.3053 -5.943873,-3.28843 0.960212,-1.67842 5.563081,3.44119 z m 16.954245,0 h 1.887463 v 6.39038 l 5.563085,-3.44119 0.960209,1.67842 -5.943871,3.28843 5.943871,3.3053 -0.960209,1.66109 -5.563085,-3.44072 v 6.39037 h -1.887463 v -6.39037 l -5.563084,3.44072 -0.960208,-1.66109 5.943869,-3.3053 -5.94387,-3.28843 0.960209,-1.67842 5.563083,3.44119 z m 16.954243,0 h 1.887465 v 6.39038 l 5.56308,-3.44119 0.96021,1.67842 -5.94387,3.28843 5.94387,3.3053 -0.96021,1.66109 -5.56308,-3.44072 v 6.39037 h -1.887465 v -6.39037 l -5.563084,3.44072 -0.960665,-1.66109 5.94387,-3.3053 -5.94387,-3.28843 0.960665,-1.67842 5.563084,3.44119 z"
           style="opacity:1;fill:#442356;fill-opacity:1;stroke:#220c2b;stroke-width:0;stroke-linecap:butt;stroke-linejoin:miter;stroke-miterlimit:4;stroke-dasharray:none;stroke-opacity:0.5" />
        <path
           style="opacity:1;fill:none;fill-opacity:1;stroke:#442356;stroke-width:2.31933761;stroke-linecap:butt;stroke-linejoin:miter;stroke-miterlimit:3.5999999;stroke-dasharray:none;stroke-opacity:1"
           d="m 83.664928,179.42652 c 0,0 -16.020935,12.79855 -39.048161,13.57852 2.746313,66.69293 10.663254,69.36009 39.059363,91.0122 1.774758,-1.35326 3.469306,-2.63256 5.087815,-3.85775 24.277525,-18.37806 31.396855,-24.62982 33.971535,-87.15445 -19.0066,-0.64378 -32.91287,-9.43357 -37.459506,-12.51809 -1.049227,-0.69888 -0.630911,-0.57724 -1.599844,-1.05382 -0.258382,-0.26338 -0.43884,0.77415 0,0 z"
           id="path848" />
        <path
           id="path48"
           d="m 83.67613,179.43313 c 0.112692,0.84965 7.058233,-6.37535 -0.01078,-6.37535 m 0.06273,6.37535 c -0.112692,0.84965 -7.058233,-6.37535 0.01078,-6.37535"
           style="fill:none;stroke:#442356;stroke-width:2.29578948;stroke-linecap:butt;stroke-linejoin:miter;stroke-miterlimit:4;stroke-dasharray:none;stroke-opacity:1" />
      </g>
    </g>
  </g>
  <g
     transform="translate(-58.543252,-169.0242)"
     id="layer1">
    <flowRoot
       transform="scale(0.26458333)"
       style="font-style:normal;font-variant:normal;font-weight:bold;font-stretch:normal;font-size:40px;line-height:1.25;font-family:sans-serif;-inkscape-font-specification:'sans-serif Bold';letter-spacing:0px;word-spacing:0px;fill:#000000;fill-opacity:1;stroke:none"
       id="flowRoot133"
       xml:space="preserve"><flowRegion
         style="font-style:normal;font-variant:normal;font-weight:bold;font-stretch:normal;font-family:sans-serif;-inkscape-font-specification:'sans-serif Bold'"
         id="flowRegion135"><rect
           style="font-style:normal;font-variant:normal;font-weight:bold;font-stretch:normal;font-family:sans-serif;-inkscape-font-specification:'sans-serif Bold'"
           y="433.94824"
           x="-737.14288"
           height="108.57143"
           width="188.57143"
           id="rect137" /></flowRegion><flowPara
         id="flowPara139" /></flowRoot>    <text
       id="text143"
       y="123.8869"
       x="-167.82143"
       style="font-style:normal;font-variant:normal;font-weight:bold;font-stretch:normal;font-size:10.58333302px;line-height:1.25;font-family:sans-serif;-inkscape-font-specification:'sans-serif Bold';letter-spacing:0px;word-spacing:0px;fill:#000000;fill-opacity:1;stroke:none;stroke-width:0.26458332"
       xml:space="preserve"><tspan
         style="font-style:normal;font-variant:normal;font-weight:bold;font-stretch:normal;font-family:sans-serif;-inkscape-font-specification:'sans-serif Bold';stroke-width:0.26458332"
         y="133.5424"
         x="-167.82143"
         id="tspan141" /></text>
    <flowRoot
       transform="scale(0.26458333)"
       style="font-style:normal;font-weight:normal;font-size:40px;line-height:1.25;font-family:sans-serif;letter-spacing:0px;word-spacing:0px;fill:#000000;fill-opacity:1;stroke:none"
       id="flowRoot145"
       xml:space="preserve"><flowRegion
         id="flowRegion147"><rect
           y="319.66254"
           x="-888.57141"
           height="417.14285"
           width="505.71429"
           id="rect149" /></flowRegion><flowPara
         id="flowPara151" /></flowRoot>    <flowRoot
       transform="scale(0.26458333)"
       style="font-style:normal;font-weight:normal;font-size:40px;line-height:1.25;font-family:sans-serif;letter-spacing:0px;word-spacing:0px;fill:#000000;fill-opacity:1;stroke:none"
       id="flowRoot153"
       xml:space="preserve"><flowRegion
         id="flowRegion155"><rect
           y="336.80539"
           x="-848.57141"
           height="462.85715"
           width="614.28571"
           id="rect157" /></flowRegion><flowPara
         id="flowPara159" /></flowRoot>  </g>
</svg>
